<svg width="42" height="42" viewBox="0 0 42 42" fill="none" xmlns="http://www.w3.org/2000/svg">
<path d="M24.2556 1C28.6965 1 32.9555 2.76409 36.0956 5.9042C39.2358 9.04431 41 13.3032 41 17.744" stroke="black" stroke-opacity="0.6" stroke-width="1.5" stroke-miterlimit="10" stroke-linecap="square"/>
<path d="M24.2556 8.44177C26.7228 8.44177 29.0889 9.42182 30.8334 11.1663C32.578 12.9108 33.558 15.2769 33.558 17.744" stroke="black" stroke-opacity="0.6" stroke-width="1.5" stroke-miterlimit="10" stroke-linecap="square"/>
<path d="M27.0845 26.0602L23.9003 30.0406C18.9686 27.1422 14.8586 23.0326 11.9597 18.1012L15.9402 14.9171C16.4067 14.5435 16.7363 14.0261 16.8776 13.4455C17.019 12.865 16.9641 12.2539 16.7216 11.7078L13.0928 3.53765C12.8327 2.9515 12.3729 2.47681 11.7953 2.19824C11.2177 1.91967 10.5599 1.85534 9.93926 2.01674L3.03316 3.80835C2.38863 3.97673 1.82828 4.37571 1.45828 4.92966C1.08829 5.48361 0.934373 6.15404 1.0257 6.81389C2.23784 15.4451 6.22704 23.4471 12.3902 29.6101C18.5534 35.7732 26.5556 39.7623 35.1869 40.9744C35.8466 41.0655 36.5169 40.9115 37.0706 40.5415C37.6244 40.1715 38.0232 39.6113 38.1916 38.967L39.9832 32.0601C40.1443 31.4396 40.0799 30.7821 39.8016 30.2046C39.5232 29.6271 39.049 29.1672 38.4632 28.9067L30.2939 25.2788C29.7478 25.0361 29.1367 24.9812 28.556 25.1226C27.9754 25.2639 27.458 25.5936 27.0845 26.0602V26.0602Z" stroke="black" stroke-opacity="0.6" stroke-width="1.5" stroke-miterlimit="10" stroke-linecap="square"/>
</svg>
