<svg width="40" height="40" viewBox="0 0 40 40" fill="none" xmlns="http://www.w3.org/2000/svg">
<g clip-path="url(#clip0)">
<path d="M25.5175 14.4921C25 14.4921 24.5807 14.9114 24.5807 15.4288V33.1338C24.5807 33.6508 25 34.0705 25.5175 34.0705C26.0349 34.0705 26.4542 33.6508 26.4542 33.1338V15.4288C26.4542 14.9114 26.0349 14.4921 25.5175 14.4921Z" fill="black" fill-opacity="0.6"/>
<path d="M14.4635 14.4921C13.9461 14.4921 13.5267 14.9114 13.5267 15.4288V33.1338C13.5267 33.6508 13.9461 34.0705 14.4635 34.0705C14.9809 34.0705 15.4003 33.6508 15.4003 33.1338V15.4288C15.4003 14.9114 14.9809 14.4921 14.4635 14.4921Z" fill="black" fill-opacity="0.6"/>
<path d="M6.40739 11.9083V34.9882C6.40739 36.3524 6.90761 37.6335 7.78144 38.5527C8.65124 39.4744 9.86171 39.9977 11.1285 39.9999H28.8524C30.1196 39.9977 31.3301 39.4744 32.1995 38.5527C33.0734 37.6335 33.5736 36.3524 33.5736 34.9882V11.9083C35.3106 11.4472 36.4362 9.76907 36.2038 7.98666C35.9711 6.20461 34.4529 4.87155 32.6555 4.87118H27.8593V3.70022C27.8648 2.71552 27.4755 1.76998 26.7784 1.07435C26.0813 0.379098 25.1343 -0.00804931 24.1496 1.01299e-06H15.8314C14.8467 -0.00804931 13.8997 0.379098 13.2026 1.07435C12.5055 1.76998 12.1162 2.71552 12.1217 3.70022V4.87118H7.3255C5.52808 4.87155 4.00986 6.20461 3.77713 7.98666C3.54477 9.76907 4.67035 11.4472 6.40739 11.9083ZM28.8524 38.1264H11.1285C9.52689 38.1264 8.28092 36.7505 8.28092 34.9882V11.9906H31.7001V34.9882C31.7001 36.7505 30.4541 38.1264 28.8524 38.1264ZM13.9952 3.70022C13.989 3.21245 14.1807 2.74297 14.5269 2.39863C14.8727 2.0543 15.3433 1.86512 15.8314 1.87353H24.1496C24.6377 1.86512 25.1083 2.0543 25.4541 2.39863C25.8003 2.7426 25.992 3.21245 25.9858 3.70022V4.87118H13.9952V3.70022ZM7.3255 6.74471H32.6555C33.5868 6.74471 34.3417 7.49961 34.3417 8.43089C34.3417 9.36217 33.5868 10.1171 32.6555 10.1171H7.3255C6.39422 10.1171 5.63932 9.36217 5.63932 8.43089C5.63932 7.49961 6.39422 6.74471 7.3255 6.74471Z" fill="black" fill-opacity="0.6"/>
<path d="M19.9905 14.4921C19.4731 14.4921 19.0537 14.9114 19.0537 15.4288V33.1338C19.0537 33.6508 19.4731 34.0705 19.9905 34.0705C20.5079 34.0705 20.9272 33.6508 20.9272 33.1338V15.4288C20.9272 14.9114 20.5079 14.4921 19.9905 14.4921Z" fill="black" fill-opacity="0.6"/>
</g>
<defs>
<clipPath id="clip0">
<rect width="40" height="40" fill="white"/>
</clipPath>
</defs>
</svg>
