<svg width="50" height="61" viewBox="0 0 50 61" fill="none" xmlns="http://www.w3.org/2000/svg">
<path d="M33.3334 24.8066C35.6345 24.8066 37.5 22.9555 37.5 20.6721C37.5 18.3888 35.6345 16.5377 33.3334 16.5377C31.0322 16.5377 29.1667 18.3888 29.1667 20.6721C29.1667 22.9555 31.0322 24.8066 33.3334 24.8066Z" stroke="black" stroke-opacity="0.6" stroke-width="2" stroke-miterlimit="10" stroke-linecap="square"/>
<path d="M33.3333 38.588H43.0555C43.0557 36.8253 42.569 35.0962 41.6485 33.5886C40.728 32.081 39.4088 30.8524 37.8341 30.0364C36.2595 29.2204 34.4896 28.848 32.7167 28.9598C30.9438 29.0716 29.2356 29.6633 27.7778 30.6706" stroke="black" stroke-opacity="0.6" stroke-width="2" stroke-miterlimit="10" stroke-linecap="square"/>
<path d="M16.6667 30.3191C18.9679 30.3191 20.8333 28.4681 20.8333 26.1847C20.8333 23.9013 18.9679 22.0503 16.6667 22.0503C14.3655 22.0503 12.5 23.9013 12.5 26.1847C12.5 28.4681 14.3655 30.3191 16.6667 30.3191Z" stroke="black" stroke-opacity="0.6" stroke-width="2" stroke-miterlimit="10" stroke-linecap="square"/>
<path d="M16.6667 34.4536C14.0882 34.4536 11.6153 35.47 9.79203 37.2791C7.96876 39.0883 6.94446 41.542 6.94446 44.1006H26.3889C26.3889 41.542 25.3646 39.0883 23.5413 37.2791C21.7181 35.47 19.2452 34.4536 16.6667 34.4536Z" stroke="black" stroke-opacity="0.6" stroke-width="2" stroke-miterlimit="10" stroke-linecap="square"/>
</svg>
