<svg width="40" height="40" viewBox="0 0 40 40" fill="none" xmlns="http://www.w3.org/2000/svg">
<circle cx="20" cy="20" r="19" fill="url(#paint0_linear)" stroke="white" stroke-width="2"/>
<g clip-path="url(#clip0)">
<path d="M28.222 22.3533C27.8646 22.3533 27.5738 22.0625 27.5738 21.705V17.1259C27.5738 13.5107 25.1853 10.4428 21.9034 9.41741C22.0021 9.14266 22.0542 8.85098 22.0542 8.55419C22.0542 7.14583 20.9084 6 19.5 6C18.0915 6 16.9457 7.14583 16.9457 8.55424C16.9457 8.85333 16.9968 9.14458 17.0949 9.418C13.8139 10.4439 11.4262 13.5113 11.4262 17.126V21.7051C11.4262 22.0625 11.1354 22.3533 10.778 22.3533C9.3486 22.3533 8.18579 23.5162 8.18579 24.9455C8.18579 26.3748 9.3486 27.5377 10.778 27.5377H16.8251C16.7667 27.763 16.7361 27.9972 16.7361 28.2361C16.7361 29.7602 17.976 31 19.5 31C21.024 31 22.2639 29.7602 22.2639 28.2361C22.2639 27.9972 22.2333 27.7631 22.1749 27.5377H28.222C29.6513 27.5377 30.8141 26.3748 30.8141 24.9455C30.8142 23.5161 29.6514 22.3533 28.222 22.3533V22.3533ZM18.4182 8.55424C18.4182 7.95772 18.9035 7.47241 19.5 7.47241C20.0965 7.47241 20.5818 7.95772 20.5818 8.55424C20.5818 8.74982 20.5289 8.94021 20.4305 9.1061C20.1251 9.07091 19.8147 9.05216 19.5 9.05216C19.1856 9.05216 18.8756 9.07086 18.5705 9.106C18.4719 8.9406 18.4182 8.75174 18.4182 8.55424ZM20.7915 28.2361C20.7915 28.9482 20.2121 29.5276 19.5 29.5276C18.7879 29.5276 18.2085 28.9482 18.2085 28.2361C18.2085 27.9845 18.2803 27.7441 18.4135 27.5376H20.5865C20.7198 27.7441 20.7915 27.9845 20.7915 28.2361ZM28.222 26.0652H10.778C10.1605 26.0652 9.6582 25.5629 9.6582 24.9454C9.6582 24.328 10.1605 23.8257 10.778 23.8257C11.9473 23.8257 12.8986 22.8744 12.8986 21.705V17.1259C12.8986 13.4859 15.8599 10.5245 19.5 10.5245C23.14 10.5245 26.1014 13.4859 26.1014 17.1259V21.705C26.1014 22.8744 27.0527 23.8257 28.222 23.8257C28.8394 23.8257 29.3418 24.328 29.3418 24.9454C29.3418 25.5629 28.8394 26.0652 28.222 26.0652V26.0652Z" fill="white"/>
</g>
<defs>
<linearGradient id="paint0_linear" x1="40" y1="40" x2="2.8" y2="-3.89624e-06" gradientUnits="userSpaceOnUse">
<stop stop-color="#FF7A00"/>
<stop offset="1" stop-color="#FFD336"/>
</linearGradient>
<clipPath id="clip0">
<rect width="25" height="25" fill="white" transform="translate(7 6)"/>
</clipPath>
</defs>
</svg>
