<svg width="40" height="40" viewBox="0 0 40 40" fill="none" xmlns="http://www.w3.org/2000/svg">
<g clip-path="url(#clip0)">
<path d="M36.9184 25.1277C36.3682 25.1277 35.9222 25.5737 35.9222 26.1239V34.9692C35.9203 36.6192 34.5836 37.9562 32.9336 37.9578H4.98104C3.33107 37.9562 1.99436 36.6192 1.99241 34.9692V9.00902C1.99436 7.35944 3.33107 6.02235 4.98104 6.0204H13.8263C14.3765 6.0204 14.8225 5.57444 14.8225 5.02419C14.8225 4.47433 14.3765 4.02798 13.8263 4.02798H4.98104C2.23135 4.0311 0.00311315 6.25933 0 9.00902V34.9696C0.00311315 37.7193 2.23135 39.9475 4.98104 39.9506H32.9336C35.6833 39.9475 37.9115 37.7193 37.9146 34.9696V26.1239C37.9146 25.5737 37.4687 25.1277 36.9184 25.1277Z" fill="black" fill-opacity="0.6"/>
<path d="M37.5201 1.46471C35.7693 -0.286047 32.9309 -0.286047 31.1801 1.46471L13.4072 19.2377C13.2854 19.3595 13.1974 19.5105 13.1515 19.6762L10.8143 28.114C10.7182 28.46 10.8159 28.8304 11.0696 29.0846C11.3237 29.3383 11.6942 29.4359 12.0401 29.3402L20.4779 27.0026C20.6437 26.9567 20.7947 26.8688 20.9165 26.747L38.689 8.97362C40.4371 7.2217 40.4371 4.38562 38.689 2.6337L37.5201 1.46471ZM15.5778 19.8852L30.1236 5.33902L34.8147 10.0301L20.2685 24.5763L15.5778 19.8852ZM14.6408 21.7655L18.3886 25.5138L13.2044 26.9501L14.6408 21.7655ZM37.2803 7.56492L36.2238 8.62145L31.5323 3.92993L32.5892 2.87341C33.5617 1.90094 35.1385 1.90094 36.111 2.87341L37.2803 4.0424C38.2513 5.01603 38.2513 6.59167 37.2803 7.56492Z" fill="black" fill-opacity="0.6"/>
</g>
<defs>
<clipPath id="clip0">
<rect width="40" height="40" fill="white"/>
</clipPath>
</defs>
</svg>
