<svg width="58" height="58" viewBox="0 0 58 58" fill="none" xmlns="http://www.w3.org/2000/svg">
<g filter="url(#filter0_d)">
<circle cx="29" cy="25" r="25" fill="white"/>
</g>
<path d="M42.1401 10.9848C40.827 9.67173 38.6982 9.67173 37.3851 10.9848L24.0554 24.3145C23.9641 24.4059 23.8981 24.5191 23.8637 24.6434L22.1108 30.9718C22.0387 31.2313 22.1119 31.5091 22.3022 31.6997C22.4928 31.89 22.7707 31.9632 23.0301 31.8914L29.3585 30.1382C29.4828 30.1038 29.596 30.0378 29.6874 29.9465L43.0168 16.6165C44.3278 15.3025 44.3278 13.1755 43.0168 11.8615L42.1401 10.9848ZM25.6834 24.8002L36.5927 13.8905L40.1111 17.4089L29.2014 28.3185L25.6834 24.8002ZM24.9806 26.2104L27.7915 29.0216L23.9034 30.0988L24.9806 26.2104ZM41.9603 15.56L41.1679 16.3524L37.6493 12.8337L38.4419 12.0413C39.1713 11.312 40.3539 11.312 41.0833 12.0413L41.9603 12.9181C42.6885 13.6483 42.6885 14.83 41.9603 15.56V15.56Z" fill="#FF980A"/>
<path d="M41.6888 28.7321C41.2761 28.7321 40.9417 29.0665 40.9417 29.4792V36.1132C40.9402 37.3506 39.9377 38.3535 38.7002 38.3546H17.7358C16.4983 38.3535 15.4958 37.3506 15.4943 36.1132V16.643C15.4958 15.4059 16.4983 14.403 17.7358 14.4016H24.3697C24.7824 14.4016 25.1169 14.0671 25.1169 13.6544C25.1169 13.242 24.7824 12.9073 24.3697 12.9073H17.7358C15.6735 12.9096 14.0023 14.5808 14 16.643V36.1134C14.0023 38.1757 15.6735 39.8469 17.7358 39.8492H38.7002C40.7625 39.8469 42.4336 38.1757 42.436 36.1134V29.4792C42.436 29.0665 42.1015 28.7321 41.6888 28.7321V28.7321Z" fill="#FF980A"/>
<defs>
<filter id="filter0_d" x="0" y="0" width="58" height="58" filterUnits="userSpaceOnUse" color-interpolation-filters="sRGB">
<feFlood flood-opacity="0" result="BackgroundImageFix"/>
<feColorMatrix in="SourceAlpha" type="matrix" values="0 0 0 0 0 0 0 0 0 0 0 0 0 0 0 0 0 0 127 0"/>
<feOffset dy="4"/>
<feGaussianBlur stdDeviation="2"/>
<feColorMatrix type="matrix" values="0 0 0 0 0 0 0 0 0 0 0 0 0 0 0 0 0 0 0.25 0"/>
<feBlend mode="normal" in2="BackgroundImageFix" result="effect1_dropShadow"/>
<feBlend mode="normal" in="SourceGraphic" in2="effect1_dropShadow" result="shape"/>
</filter>
</defs>
</svg>
