<svg width="40" height="40" viewBox="0 0 40 40" fill="none" xmlns="http://www.w3.org/2000/svg">
<g clip-path="url(#clip0)">
<path d="M21.6342 30.6832C22.0851 30.6832 22.4506 31.0487 22.4506 31.4995V31.865C22.4506 32.3159 22.0851 32.6813 21.6342 32.6813C21.1835 32.6813 20.8179 32.3159 20.8179 31.865V31.4995C20.8179 31.0487 21.1834 30.6832 21.6342 30.6832Z" fill="black" fill-opacity="0.6"/>
<path d="M1.48847 24.481L3.94105 22.4611C3.81761 21.6486 3.75511 20.823 3.75511 20C3.75511 19.177 3.81761 18.3512 3.94113 17.5387L1.48847 15.5188C0.70472 14.8733 0.504486 13.7672 1.01199 12.8891L4.34769 7.11164C4.71519 6.47312 5.40074 6.07648 6.13699 6.07648C6.38621 6.07648 6.63121 6.12125 6.8637 6.20891L9.84097 7.32406C11.1336 6.28609 12.5635 5.4593 14.1027 4.86L14.6248 1.72859C14.791 0.727031 15.6484 0 16.6638 0L23.3363 0C24.3516 0 25.2091 0.727109 25.375 1.72805L25.8972 4.85992C27.4365 5.45937 28.8665 6.28609 30.1592 7.32414L33.133 6.21031C33.3673 6.12141 33.6127 6.07633 33.8625 6.07633C34.598 6.07633 35.2837 6.47273 35.6518 7.11078L38.9879 12.8889C39.4957 13.7673 39.2953 14.8735 38.5116 15.5189L36.0589 17.5388C36.1824 18.3513 36.2449 19.177 36.2449 20C36.2449 20.823 36.1824 21.6487 36.0589 22.4612L38.5116 24.4812C39.2953 25.1266 39.4956 26.2327 38.9881 27.1109L35.6519 32.8892C35.2835 33.5276 34.5978 33.9241 33.8625 33.9241C33.6121 33.9241 33.3663 33.8787 33.1364 33.7911L30.1593 32.6759C28.8666 33.7139 27.4367 34.5407 25.8975 35.14L25.3755 38.2709C25.2097 39.2728 24.3521 40 23.3362 40H16.6637C15.6488 40 14.7913 39.2731 14.625 38.272L14.1028 35.1401C12.5634 34.5406 11.1335 33.7139 9.84081 32.6759L6.8666 33.79C6.6323 33.8788 6.38683 33.9238 6.13722 33.9238C5.40199 33.9238 4.71652 33.5274 4.34816 32.8894L1.01199 27.1111C0.504486 26.2325 0.7048 25.1265 1.48847 24.481ZM16.6638 38.3673H20.818V34.5059C20.818 34.055 21.1835 33.6895 21.6343 33.6895C22.0852 33.6895 22.4507 34.055 22.4507 34.5059V38.3673H23.3039V29.4144C22.241 29.7928 21.1117 29.9905 19.9551 29.9911C19.9549 29.9911 19.95 29.9911 19.9496 29.9911C18.7893 29.9911 17.6586 29.7936 16.5959 29.4148L16.5959 38.3613H16.5958C16.6181 38.3648 16.6407 38.3673 16.6638 38.3673ZM19.9499 28.3584H19.9543C24.5609 28.3562 28.3085 24.6064 28.3084 19.9998C28.3083 17.3191 27.0447 14.8581 24.9367 13.301V19.2564C24.9367 19.5432 24.7862 19.8089 24.5403 19.9564L20.37 22.4585C20.1114 22.6135 19.7885 22.6135 19.53 22.4585L15.3596 19.9564C15.1137 19.8088 14.9632 19.5431 14.9632 19.2564V13.301C12.8552 14.8581 11.5914 17.3191 11.5916 20C11.5916 22.2288 12.4621 24.3267 14.0427 25.9073C15.6233 27.488 17.7212 28.3584 19.9499 28.3584ZM2.42589 26.2945L5.76222 32.073C5.86581 32.2524 6.08425 32.3405 6.29105 32.2621L9.71074 30.9811C9.98863 30.8771 10.301 30.9319 10.5267 31.1244C11.8489 32.2516 13.3412 33.1235 14.9634 33.7191L14.9634 28.6582C14.2146 28.2245 13.5171 27.6905 12.8884 27.0618C10.9994 25.1727 9.9591 22.6648 9.9591 20C9.95902 16.2311 12.0473 12.8257 15.4091 11.113C15.6621 10.984 15.964 10.9959 16.2062 11.1443C16.4483 11.2927 16.596 11.5563 16.596 11.8403V18.7943L19.95 20.8067L23.3041 18.7943V11.8403C23.3041 11.5563 23.4518 11.2927 23.6939 11.1443C23.936 10.9959 24.2378 10.9841 24.491 11.113C27.8527 12.8256 29.941 16.2309 29.9411 19.9998C29.9412 22.7141 28.88 25.2463 26.9531 27.1295C26.3392 27.7295 25.6617 28.2412 24.9368 28.6596V33.7561C26.5975 33.16 28.1239 32.275 29.4735 31.1245C29.6237 30.9966 29.8121 30.9295 30.0032 30.9295C30.0995 30.9295 30.1964 30.9464 30.2894 30.9813L33.7136 32.2641C33.7615 32.2823 33.8117 32.2916 33.8625 32.2916C34.0163 32.2916 34.1601 32.208 34.2378 32.0732L37.5742 26.2945C37.6809 26.11 37.6385 25.8775 37.4736 25.7416L34.6571 23.4219C34.4285 23.2335 34.3198 22.9362 34.3732 22.645C34.5317 21.7762 34.6123 20.8865 34.6123 20C34.6123 19.1136 34.5318 18.2237 34.373 17.3552C34.3198 17.0638 34.4284 16.7665 34.6571 16.5783L37.4735 14.2587C37.6385 14.1227 37.6809 13.8902 37.5741 13.7055L34.2378 7.92695C34.1344 7.74773 33.9167 7.65906 33.7089 7.73797L30.2893 9.01891C30.0115 9.12281 29.6991 9.06812 29.4733 8.8757C28.1126 7.71578 26.5726 6.82539 24.896 6.22914C24.6167 6.12977 24.4131 5.8868 24.3644 5.5943L23.7645 1.99594C23.7296 1.78547 23.5495 1.63273 23.3362 1.63273L16.6637 1.63273C16.4504 1.63273 16.2703 1.78547 16.2352 1.99648L15.6353 5.59438C15.5865 5.88688 15.3829 6.13 15.1035 6.22922C13.4271 6.82539 11.8871 7.7157 10.5265 8.87563C10.3007 9.06805 9.98839 9.12289 9.71058 9.01883L6.28917 7.73719C6.23988 7.71859 6.18863 7.70922 6.13683 7.70922C5.98292 7.70922 5.83957 7.79234 5.76199 7.92711L2.42558 13.7058C2.31894 13.8902 2.36136 14.1227 2.5262 14.2586L5.34277 16.5783C5.57136 16.7666 5.68011 17.0638 5.62675 17.3552C5.46816 18.2237 5.38761 19.1137 5.38761 20.0001C5.38761 20.8865 5.46808 21.7763 5.62691 22.6448C5.68011 22.9361 5.57152 23.2335 5.34285 23.4217L2.52636 25.7413C2.36144 25.8771 2.3191 26.1098 2.42589 26.2945Z" fill="black" fill-opacity="0.6"/>
</g>
<defs>
<clipPath id="clip0">
<rect width="40" height="40" fill="white" transform="matrix(-1 0 0 1 40 0)"/>
</clipPath>
</defs>
</svg>
