<svg width="58" height="58" viewBox="0 0 58 58" fill="none" xmlns="http://www.w3.org/2000/svg">
<g filter="url(#filter0_d)">
<circle cx="29" cy="25" r="25" fill="white"/>
</g>
<path d="M27 9.66666C27 8.74619 27.7462 8 28.6667 8V8C29.5871 8 30.3333 8.74619 30.3333 9.66667V39.6667C30.3333 40.5871 29.5871 41.3333 28.6667 41.3333V41.3333C27.7462 41.3333 27 40.5871 27 39.6667V9.66666Z" fill="#FF980A"/>
<rect x="27" y="8" width="3.33334" height="33.3333" rx="1.66667" fill="#FF980A"/>
<rect x="27" y="8" width="3.33334" height="33.3333" rx="1.66667" stroke="#FF980A"/>
<path d="M13.6667 25.5C12.7462 25.5 12 24.7538 12 23.8333V23.8333C12 22.9129 12.7462 22.1667 13.6667 22.1667L43.6667 22.1667C44.5871 22.1667 45.3333 22.9129 45.3333 23.8333V23.8333C45.3333 24.7538 44.5871 25.5 43.6667 25.5L13.6667 25.5Z" fill="#FF980A"/>
<rect x="12" y="25.5" width="3.33334" height="33.3333" rx="1.66667" transform="rotate(-90 12 25.5)" fill="#FF980A"/>
<rect x="12" y="25.5" width="3.33334" height="33.3333" rx="1.66667" transform="rotate(-90 12 25.5)" stroke="#FF980A"/>
<defs>
<filter id="filter0_d" x="0" y="0" width="58" height="58" filterUnits="userSpaceOnUse" color-interpolation-filters="sRGB">
<feFlood flood-opacity="0" result="BackgroundImageFix"/>
<feColorMatrix in="SourceAlpha" type="matrix" values="0 0 0 0 0 0 0 0 0 0 0 0 0 0 0 0 0 0 127 0"/>
<feOffset dy="4"/>
<feGaussianBlur stdDeviation="2"/>
<feColorMatrix type="matrix" values="0 0 0 0 0 0 0 0 0 0 0 0 0 0 0 0 0 0 0.25 0"/>
<feBlend mode="normal" in2="BackgroundImageFix" result="effect1_dropShadow"/>
<feBlend mode="normal" in="SourceGraphic" in2="effect1_dropShadow" result="shape"/>
</filter>
</defs>
</svg>
