<svg width="80" height="140" viewBox="0 0 80 140" fill="none" xmlns="http://www.w3.org/2000/svg">
<rect width="40" height="40" transform="matrix(-1 0 0 1 60 20)" fill="white"/>
<path d="M23.7058 44.0329L25.9971 42.215C25.8817 41.4837 25.8233 40.7407 25.8233 40C25.8233 39.2593 25.8817 38.5161 25.9971 37.7849L23.7058 35.9669C22.9735 35.386 22.7865 34.3905 23.2606 33.6002L26.377 28.4005C26.7203 27.8258 27.3608 27.4688 28.0486 27.4688C28.2814 27.4688 28.5103 27.5091 28.7275 27.588L31.509 28.5917C32.7166 27.6575 34.0525 26.9134 35.4905 26.374L35.9782 23.5557C36.1335 22.6543 36.9345 22 37.8831 22H44.1169C45.0654 22 45.8665 22.6544 46.0215 23.5552L46.5094 26.3739C47.9475 26.9134 49.2834 27.6575 50.4911 28.5917L53.2693 27.5893C53.4882 27.5093 53.7175 27.4687 53.9509 27.4687C54.638 27.4687 55.2786 27.8255 55.6225 28.3997L58.7392 33.6C59.2136 34.3906 59.0265 35.3862 58.2942 35.967L56.0029 37.7849C56.1182 38.5162 56.1766 39.2593 56.1766 40C56.1766 40.7407 56.1182 41.4838 56.0029 42.2151L58.2942 44.0331C59.0265 44.614 59.2135 45.6095 58.7394 46.3998L55.6226 51.6003C55.2784 52.1748 54.6379 52.5317 53.9509 52.5317C53.717 52.5317 53.4873 52.4909 53.2726 52.412L50.4912 51.4083C49.2835 52.3425 47.9476 53.0866 46.5097 53.626L46.022 56.4438C45.8671 57.3455 45.0659 58 44.1168 58H37.8831C36.9349 58 36.1338 57.3458 35.9784 56.4448L35.4906 53.6261C34.0524 53.0866 32.7165 52.3425 31.5088 51.4083L28.7302 52.411C28.5113 52.4909 28.282 52.5314 28.0488 52.5314C27.3619 52.5314 26.7215 52.1747 26.3774 51.6004L23.2606 46.4C22.7865 45.6093 22.9736 44.6138 23.7058 44.0329ZM37.8831 56.5306H41.7642V53.0553C41.7642 52.6495 42.1056 52.3206 42.5268 52.3206C42.948 52.3206 43.2895 52.6495 43.2895 53.0553V56.5306H44.0866V48.4729C43.0936 48.8135 42.0385 48.9915 40.958 48.992C40.9578 48.992 40.9532 48.992 40.9529 48.992C39.8689 48.992 38.8126 48.8142 37.8197 48.4734V56.5252H37.8196C37.8404 56.5283 37.8615 56.5306 37.8831 56.5306ZM40.9531 47.5226H40.9573C45.2609 47.5206 48.7621 44.1458 48.762 39.9999C48.7619 37.5872 47.5814 35.3723 45.612 33.9709V39.3308C45.612 39.5889 45.4714 39.828 45.2417 39.9608L41.3456 42.2127C41.1041 42.3522 40.8023 42.3522 40.5608 42.2127L36.6647 39.9608C36.435 39.8279 36.2944 39.5888 36.2944 39.3308V33.9709C34.325 35.3723 33.1444 37.5872 33.1445 40C33.1445 42.0059 33.9578 43.894 35.4344 45.3166C36.9111 46.7392 38.871 47.5226 40.9531 47.5226ZM24.5815 45.6651L27.6985 50.8657C27.7952 51.0272 27.9993 51.1064 28.1925 51.0359L31.3873 49.883C31.6469 49.7894 31.9387 49.8387 32.1496 50.0119C33.3849 51.0264 34.7791 51.8112 36.2946 52.3472V47.7924C35.595 47.4021 34.9433 46.9215 34.356 46.3556C32.5913 44.6555 31.6194 42.3984 31.6194 40C31.6193 36.608 33.5702 33.5431 36.711 32.0017C36.9474 31.8856 37.2294 31.8963 37.4557 32.0299C37.6818 32.1635 37.8198 32.4007 37.8198 32.6563V38.9149L40.9533 40.726L44.0868 38.9149V32.6563C44.0868 32.4007 44.2247 32.1635 44.4509 32.0299C44.6771 31.8963 44.9591 31.8857 45.1956 32.0017C48.3363 33.5431 50.2872 36.6078 50.2874 39.9999C50.2874 42.4427 49.296 44.7216 47.4958 46.4166C46.9223 46.9566 46.2893 47.4171 45.6121 47.7936V52.3805C47.1636 51.844 48.5896 51.0475 49.8505 50.0121C49.9908 49.8969 50.1668 49.8365 50.3454 49.8365C50.4353 49.8365 50.5259 49.8518 50.6127 49.8832L53.8118 51.0377C53.8565 51.0541 53.9034 51.0625 53.9508 51.0625C54.0945 51.0625 54.2289 50.9872 54.3015 50.8659L57.4185 45.665C57.5182 45.499 57.4785 45.2898 57.3245 45.1675L54.6933 43.0797C54.4797 42.9102 54.3781 42.6426 54.4279 42.3805C54.5761 41.5986 54.6514 40.7978 54.6514 40C54.6514 39.2022 54.5762 38.4014 54.4278 37.6196C54.3781 37.3574 54.4795 37.0898 54.6932 36.9205L57.3245 34.8328C57.4786 34.7105 57.5182 34.5012 57.4184 34.335L54.3015 29.1343C54.2049 28.973 54.0016 28.8932 53.8074 28.9642L50.6126 30.117C50.3531 30.2105 50.0613 30.1613 49.8503 29.9881C48.5791 28.9442 47.1404 28.1429 45.5741 27.6062C45.3131 27.5168 45.1228 27.2981 45.0774 27.0349L44.5169 23.7963C44.4843 23.6069 44.316 23.4695 44.1168 23.4695H37.8831C37.6838 23.4695 37.5155 23.6069 37.4827 23.7968L36.9223 27.0349C36.8767 27.2982 36.6865 27.517 36.4255 27.6063C34.8593 28.1429 33.4206 28.9441 32.1495 29.9881C31.9385 30.1612 31.6467 30.2106 31.3872 30.1169L28.1908 28.9635C28.1447 28.9467 28.0968 28.9383 28.0484 28.9383C27.9047 28.9383 27.7707 29.0131 27.6982 29.1344L24.5812 34.3352C24.4816 34.5012 24.5212 34.7105 24.6752 34.8327L27.3066 36.9205C27.5202 37.09 27.6218 37.3574 27.5719 37.6196C27.4237 38.4014 27.3485 39.2023 27.3485 40.0001C27.3485 40.7978 27.4237 41.5986 27.572 42.3804C27.6218 42.6425 27.5203 42.9102 27.3067 43.0795L24.6754 45.1672C24.5213 45.2894 24.4818 45.4988 24.5815 45.6651Z" fill="white" stroke="#0B5688"/>
<rect width="40" height="40" transform="matrix(-1 0 0 1 60 80)" fill="white"/>
<path d="M23.7058 104.033L25.9971 102.215C25.8817 101.484 25.8233 100.741 25.8233 100C25.8233 99.2593 25.8817 98.5161 25.9971 97.7849L23.7058 95.9669C22.9735 95.386 22.7865 94.3905 23.2606 93.6002L26.377 88.4005C26.7203 87.8258 27.3608 87.4688 28.0486 87.4688C28.2814 87.4688 28.5103 87.5091 28.7275 87.588L31.509 88.5917C32.7166 87.6575 34.0525 86.9134 35.4905 86.374L35.9782 83.5557C36.1335 82.6543 36.9345 82 37.8831 82H44.1169C45.0654 82 45.8665 82.6544 46.0215 83.5552L46.5094 86.3739C47.9475 86.9134 49.2834 87.6575 50.4911 88.5917L53.2693 87.5893C53.4882 87.5093 53.7175 87.4687 53.9509 87.4687C54.638 87.4687 55.2786 87.8255 55.6225 88.3997L58.7392 93.6C59.2136 94.3906 59.0265 95.3862 58.2942 95.967L56.0029 97.7849C56.1182 98.5162 56.1766 99.2593 56.1766 100C56.1766 100.741 56.1182 101.484 56.0029 102.215L58.2942 104.033C59.0265 104.614 59.2135 105.609 58.7394 106.4L55.6226 111.6C55.2784 112.175 54.6379 112.532 53.9509 112.532C53.717 112.532 53.4873 112.491 53.2726 112.412L50.4912 111.408C49.2835 112.343 47.9476 113.087 46.5097 113.626L46.022 116.444C45.8671 117.346 45.0659 118 44.1168 118H37.8831C36.9349 118 36.1338 117.346 35.9784 116.445L35.4906 113.626C34.0524 113.087 32.7165 112.343 31.5088 111.408L28.7302 112.411C28.5113 112.491 28.282 112.531 28.0488 112.531C27.3619 112.531 26.7215 112.175 26.3774 111.6L23.2606 106.4C22.7865 105.609 22.9736 104.614 23.7058 104.033ZM37.8831 116.531H41.7642V113.055C41.7642 112.649 42.1056 112.321 42.5268 112.321C42.948 112.321 43.2895 112.649 43.2895 113.055V116.531H44.0866V108.473C43.0936 108.814 42.0385 108.991 40.958 108.992C40.9578 108.992 40.9532 108.992 40.9529 108.992C39.8689 108.992 38.8126 108.814 37.8197 108.473V116.525H37.8196C37.8404 116.528 37.8615 116.531 37.8831 116.531ZM40.9531 107.523H40.9573C45.2609 107.521 48.7621 104.146 48.762 99.9999C48.7619 97.5872 47.5814 95.3723 45.612 93.9709V99.3308C45.612 99.5889 45.4714 99.828 45.2417 99.9608L41.3456 102.213C41.1041 102.352 40.8023 102.352 40.5608 102.213L36.6647 99.9608C36.435 99.8279 36.2944 99.5888 36.2944 99.3308V93.9709C34.325 95.3723 33.1444 97.5872 33.1445 100C33.1445 102.006 33.9578 103.894 35.4344 105.317C36.9111 106.739 38.871 107.523 40.9531 107.523ZM24.5815 105.665L27.6985 110.866C27.7952 111.027 27.9993 111.106 28.1925 111.036L31.3873 109.883C31.6469 109.789 31.9387 109.839 32.1496 110.012C33.3849 111.026 34.7791 111.811 36.2946 112.347V107.792C35.595 107.402 34.9433 106.921 34.356 106.356C32.5913 104.655 31.6194 102.398 31.6194 100C31.6193 96.608 33.5702 93.5431 36.711 92.0017C36.9474 91.8856 37.2294 91.8963 37.4557 92.0299C37.6818 92.1635 37.8198 92.4007 37.8198 92.6563V98.9149L40.9533 100.726L44.0868 98.9149V92.6563C44.0868 92.4007 44.2247 92.1635 44.4509 92.0299C44.6771 91.8963 44.9591 91.8857 45.1956 92.0017C48.3363 93.5431 50.2872 96.6078 50.2874 99.9999C50.2874 102.443 49.296 104.722 47.4958 106.417C46.9223 106.957 46.2893 107.417 45.6121 107.794V112.38C47.1636 111.844 48.5896 111.048 49.8505 110.012C49.9908 109.897 50.1668 109.837 50.3454 109.837C50.4353 109.837 50.5259 109.852 50.6127 109.883L53.8118 111.038C53.8565 111.054 53.9034 111.062 53.9508 111.062C54.0945 111.062 54.2289 110.987 54.3015 110.866L57.4185 105.665C57.5182 105.499 57.4785 105.29 57.3245 105.167L54.6933 103.08C54.4797 102.91 54.3781 102.643 54.4279 102.38C54.5761 101.599 54.6514 100.798 54.6514 100C54.6514 99.2022 54.5762 98.4014 54.4278 97.6196C54.3781 97.3574 54.4795 97.0898 54.6932 96.9205L57.3245 94.8328C57.4786 94.7105 57.5182 94.5012 57.4184 94.335L54.3015 89.1343C54.2049 88.973 54.0016 88.8932 53.8074 88.9642L50.6126 90.117C50.3531 90.2105 50.0613 90.1613 49.8503 89.9881C48.5791 88.9442 47.1404 88.1429 45.5741 87.6062C45.3131 87.5168 45.1228 87.2981 45.0774 87.0349L44.5169 83.7963C44.4843 83.6069 44.316 83.4695 44.1168 83.4695H37.8831C37.6838 83.4695 37.5155 83.6069 37.4827 83.7968L36.9223 87.0349C36.8767 87.2982 36.6865 87.517 36.4255 87.6063C34.8593 88.1429 33.4206 88.9441 32.1495 89.9881C31.9385 90.1612 31.6467 90.2106 31.3872 90.1169L28.1908 88.9635C28.1447 88.9467 28.0968 88.9383 28.0484 88.9383C27.9047 88.9383 27.7707 89.0131 27.6982 89.1344L24.5812 94.3352C24.4816 94.5012 24.5212 94.7105 24.6752 94.8327L27.3066 96.9205C27.5202 97.09 27.6218 97.3574 27.5719 97.6196C27.4237 98.4014 27.3485 99.2023 27.3485 100C27.3485 100.798 27.4237 101.599 27.572 102.38C27.6218 102.642 27.5203 102.91 27.3067 103.08L24.6754 105.167C24.5213 105.289 24.4818 105.499 24.5815 105.665Z" fill="white" stroke="#FF980A"/>
<rect x="0.5" y="0.5" width="79" height="139" rx="4.5" stroke="#7B61FF" stroke-dasharray="10 5"/>
</svg>
