<svg width="58" height="58" viewBox="0 0 58 58" fill="none" xmlns="http://www.w3.org/2000/svg">
<g filter="url(#filter0_d)">
<circle cx="29" cy="25" r="25" fill="white"/>
</g>
<path d="M40.0453 29.4416C39.5985 29.4416 39.235 29.0781 39.235 28.6313V22.9074C39.235 18.3883 36.2494 14.5536 32.1471 13.2718C32.2704 12.9283 32.3355 12.5637 32.3355 12.1927C32.3355 10.4323 30.9033 9 29.1427 9C27.3822 9 25.9499 10.4323 25.9499 12.1928C25.9499 12.5667 26.0138 12.9307 26.1363 13.2725C22.0351 14.5549 19.0505 18.3891 19.0505 22.9075V28.6313C19.0505 29.0781 18.687 29.4417 18.2402 29.4417C16.4535 29.4417 15 30.8952 15 32.6819C15 34.4685 16.4535 35.9221 18.2402 35.9221H25.7991C25.7261 36.2038 25.6879 36.4965 25.6879 36.7952C25.6879 38.7002 27.2378 40.2501 29.1427 40.2501C31.0477 40.2501 32.5976 38.7002 32.5976 36.7952C32.5976 36.4965 32.5594 36.2038 32.4863 35.9221H40.0452C41.8319 35.9221 43.2854 34.4685 43.2854 32.6819C43.2855 30.8952 41.832 29.4416 40.0453 29.4416V29.4416ZM27.7905 12.1928C27.7905 11.4471 28.3971 10.8405 29.1427 10.8405C29.8884 10.8405 30.495 11.4471 30.495 12.1928C30.495 12.4373 30.4289 12.6753 30.3059 12.8826C29.9241 12.8386 29.5361 12.8152 29.1427 12.8152C28.7498 12.8152 28.3622 12.8386 27.9808 12.8825C27.8576 12.6757 27.7905 12.4397 27.7905 12.1928ZM30.7572 36.7951C30.7572 37.6853 30.0329 38.4095 29.1428 38.4095C28.2527 38.4095 27.5284 37.6853 27.5284 36.7951C27.5284 36.4806 27.6181 36.1801 27.7847 35.922H30.5009C30.6675 36.1801 30.7572 36.4806 30.7572 36.7951ZM40.0453 34.0815H18.2402C17.4684 34.0815 16.8405 33.4536 16.8405 32.6818C16.8405 31.91 17.4684 31.2821 18.2402 31.2821C19.7018 31.2821 20.891 30.0929 20.891 28.6313V22.9074C20.891 18.3573 24.5927 14.6556 29.1427 14.6556C33.6928 14.6556 37.3945 18.3573 37.3945 22.9074V28.6313C37.3945 30.0929 38.5837 31.2821 40.0453 31.2821C40.8171 31.2821 41.445 31.91 41.445 32.6818C41.445 33.4536 40.8171 34.0815 40.0453 34.0815V34.0815Z" fill="#FF980A"/>
<defs>
<filter id="filter0_d" x="0" y="0" width="58" height="58" filterUnits="userSpaceOnUse" color-interpolation-filters="sRGB">
<feFlood flood-opacity="0" result="BackgroundImageFix"/>
<feColorMatrix in="SourceAlpha" type="matrix" values="0 0 0 0 0 0 0 0 0 0 0 0 0 0 0 0 0 0 127 0"/>
<feOffset dy="4"/>
<feGaussianBlur stdDeviation="2"/>
<feColorMatrix type="matrix" values="0 0 0 0 0 0 0 0 0 0 0 0 0 0 0 0 0 0 0.25 0"/>
<feBlend mode="normal" in2="BackgroundImageFix" result="effect1_dropShadow"/>
<feBlend mode="normal" in="SourceGraphic" in2="effect1_dropShadow" result="shape"/>
</filter>
</defs>
</svg>
