<svg width="60" height="60" viewBox="0 0 60 60" fill="none" xmlns="http://www.w3.org/2000/svg">
<circle cx="30" cy="30" r="29" fill="url(#paint0_linear)" stroke="white" stroke-width="2"/>
<path d="M20.7004 35.1746C21.0739 34.9591 21.2018 34.4809 20.9863 34.1074C20.7706 33.7341 20.2926 33.606 19.9191 33.8214C19.5456 34.0372 19.4174 34.5154 19.6332 34.8886C19.8486 35.2621 20.3268 35.3903 20.7004 35.1746V35.1746Z" fill="white"/>
<path d="M17.4988 40.5667L21.4331 47.3816C22.2821 48.8538 24.1919 49.3988 25.7022 48.5257C27.1966 47.6621 27.7103 45.7526 26.8457 44.2569L24.5019 40.1968L26.5317 39.025C26.9052 38.8089 27.0334 38.3313 26.8176 37.9578L25.8017 36.1981C25.9228 36.1746 26.7194 36.0184 40.7657 33.2629C42.5021 33.1686 43.5425 31.2695 42.6654 29.7513L40.069 25.2542L41.7282 22.7411C41.8912 22.4939 41.9009 22.1762 41.7529 21.9199L40.1904 19.2136C40.0424 18.9572 39.7613 18.8071 39.4668 18.8245L36.4612 19.0048L33.5788 14.0121C33.1613 13.2889 32.4133 12.851 31.5784 12.8406C31.5683 12.8403 31.5585 12.8403 31.5485 12.8403C30.7416 12.8403 30.0091 13.2419 29.5752 13.9209L19.3695 26.922L12.7347 30.7526C10.1251 32.2586 9.22118 35.6064 10.733 38.223C12.1142 40.6155 15.0262 41.5567 17.4988 40.5667V40.5667ZM25.4928 45.0385C25.9244 45.7849 25.6689 46.7401 24.9203 47.1725C24.1693 47.6068 23.2129 47.3401 22.7862 46.6007L18.88 39.834L21.5863 38.2715C26.1072 46.1029 25.4202 44.913 25.4928 45.0385V45.0385ZM23.7207 38.8434L22.9394 37.4902L24.2926 36.709L25.0738 38.0621L23.7207 38.8434ZM39.0787 20.4129L40.1584 22.283L39.1955 23.7412L37.3346 20.5176L39.0787 20.4129ZM30.8819 14.7775C31.0916 14.4345 31.4242 14.3991 31.5591 14.4028C31.6925 14.4043 32.0248 14.4458 32.2253 14.7931L41.3122 30.5325C41.6083 31.0449 41.2485 31.6891 40.6549 31.7038C40.5484 31.7062 40.4993 31.7255 40.2264 31.7764L30.6143 15.1276C30.816 14.8682 30.842 14.8431 30.8819 14.7775V14.7775ZM29.5746 16.452L38.6056 32.0944L24.9759 34.7678L20.8316 27.5897L29.5746 16.452ZM12.0862 37.4417C11.7432 36.8481 11.5619 36.1743 11.5619 35.4926C11.5619 34.0991 12.3108 32.8015 13.5159 32.1057L19.6051 28.5901L23.5113 35.3558L17.4222 38.8718C15.5566 39.9484 13.1631 39.3069 12.0862 37.4417V37.4417Z" fill="white"/>
<path d="M18.28 35.6698C18.0643 35.2963 17.5863 35.1681 17.2128 35.3839L15.8597 36.1651C15.4867 36.3806 15.0079 36.2521 14.7925 35.8792C14.5767 35.5057 14.0988 35.3775 13.7253 35.5932C13.3517 35.809 13.2236 36.2869 13.4393 36.6604C14.0823 37.7743 15.5166 38.1671 16.6409 37.5183L17.9941 36.737C18.3676 36.5213 18.4958 36.0437 18.28 35.6698V35.6698Z" fill="white"/>
<path d="M48.8388 14.5114L44.4854 16.9339C44.1085 17.1439 43.9727 17.6196 44.1827 17.9965C44.392 18.3731 44.8675 18.5095 45.2453 18.2992L49.5984 15.8768C49.9755 15.6668 50.111 15.191 49.9011 14.8141C49.6914 14.4369 49.2157 14.3014 48.8388 14.5114V14.5114Z" fill="white"/>
<path d="M48.3822 22.6029L45.3637 21.7941C44.9469 21.6824 44.5184 21.9296 44.4067 22.3465C44.295 22.7634 44.5425 23.1915 44.9594 23.3032L47.9782 24.1119C48.3975 24.2246 48.8238 23.9734 48.9349 23.5596C49.0466 23.1427 48.7991 22.7142 48.3822 22.6029Z" fill="white"/>
<path d="M40.7968 11.673L39.9872 14.6918C39.8755 15.1086 40.1227 15.5368 40.5395 15.6488C40.9561 15.7602 41.3846 15.5136 41.4966 15.0964L42.3059 12.0776C42.4176 11.6608 42.1704 11.2323 41.7535 11.1206C41.337 11.0089 40.9085 11.2561 40.7968 11.673V11.673Z" fill="white"/>
<defs>
<linearGradient id="paint0_linear" x1="60" y1="60" x2="4.19999" y2="-5.84435e-06" gradientUnits="userSpaceOnUse">
<stop stop-color="#FF7A00"/>
<stop offset="1" stop-color="#FFD336"/>
</linearGradient>
</defs>
</svg>
