<svg width="58" height="58" viewBox="0 0 58 58" fill="none" xmlns="http://www.w3.org/2000/svg">
<g filter="url(#filter0_d)">
<circle cx="29" cy="25" r="25" fill="white"/>
</g>
<g clip-path="url(#clip0)">
<path d="M20.917 28.9788C21.2282 28.7993 21.3348 28.4007 21.1553 28.0895C20.9755 27.7784 20.5772 27.6716 20.2659 27.8512C19.9546 28.031 19.8478 28.4295 20.0276 28.7405C20.2072 29.0518 20.6057 29.1586 20.917 28.9788V28.9788Z" fill="white"/>
<path d="M18.249 33.4723L21.5276 39.1513C22.2351 40.3781 23.8266 40.8323 25.0852 40.1048C26.3305 39.385 26.7585 37.7938 26.0381 36.5474L24.085 33.164L25.7764 32.1875C26.0877 32.0074 26.1945 31.6094 26.0147 31.2981L25.1681 29.8318C25.269 29.8122 25.9328 29.682 37.6381 27.3858C39.0851 27.3072 39.9521 25.7246 39.2212 24.4594L37.0575 20.7118L38.4402 18.6176C38.576 18.4116 38.5841 18.1468 38.4608 17.9332L37.1587 15.678C37.0353 15.4644 36.8011 15.3392 36.5557 15.3537L34.051 15.504L31.649 11.3435C31.3011 10.7407 30.6778 10.3758 29.982 10.3672C29.9736 10.3669 29.9654 10.3669 29.957 10.3669C29.2846 10.3669 28.6743 10.7016 28.3127 11.2674L19.8079 22.1017L14.2789 25.2938C12.1043 26.5488 11.351 29.3387 12.6108 31.5191C13.7619 33.513 16.1885 34.2973 18.249 33.4723V33.4723ZM24.9107 37.1987C25.2703 37.8208 25.0574 38.6168 24.4336 38.9771C23.8077 39.339 23.0107 39.1167 22.6552 38.5005L19.4 32.8617L21.6552 31.5596C25.4226 38.0858 24.8502 37.0942 24.9107 37.1987V37.1987ZM23.4339 32.0362L22.7829 30.9085L23.9105 30.2575L24.5615 31.3851L23.4339 32.0362ZM36.2322 16.6774L37.132 18.2359L36.3296 19.451L34.7788 16.7647L36.2322 16.6774ZM29.4016 11.9813C29.5763 11.6954 29.8535 11.6659 29.9659 11.669C30.0771 11.6703 30.354 11.7048 30.5211 11.9942L38.0935 25.1104C38.3402 25.5374 38.0404 26.0743 37.5457 26.0865C37.457 26.0885 37.416 26.1046 37.1887 26.147L29.1786 12.273C29.3467 12.0568 29.3683 12.036 29.4016 11.9813V11.9813ZM28.3121 13.3767L35.838 26.412L24.4799 28.6398L21.0263 22.6581L28.3121 13.3767ZM13.7385 30.8681C13.4526 30.3735 13.3016 29.8119 13.3016 29.2438C13.3016 28.0826 13.9256 27.0013 14.9299 26.4214L20.0042 23.4917L23.2595 29.1299L18.1851 32.0598C16.6305 32.957 14.6359 32.4225 13.7385 30.8681V30.8681Z" fill="#FF980A"/>
<path d="M18.9 29.3915C18.7202 29.0803 18.322 28.9735 18.0107 29.1533L16.8831 29.8043C16.5723 29.9838 16.1733 29.8768 15.9938 29.566C15.814 29.2547 15.4157 29.1479 15.1044 29.3277C14.7931 29.5075 14.6863 29.9058 14.8661 30.217C15.402 31.1453 16.5972 31.4726 17.5341 30.9319L18.6617 30.2809C18.973 30.1011 19.0798 29.7031 18.9 29.3915V29.3915Z" fill="white"/>
<path d="M44.3657 11.7595L40.7379 13.7783C40.4238 13.9532 40.3106 14.3497 40.4856 14.6638C40.6601 14.9776 41.0563 15.0913 41.3711 14.9161L44.9986 12.8973C45.313 12.7223 45.4259 12.3259 45.2509 12.0118C45.0762 11.6975 44.6797 11.5846 44.3657 11.7595V11.7595Z" fill="white"/>
<path d="M43.9852 18.5024L41.4698 17.8284C41.1224 17.7354 40.7654 17.9414 40.6723 18.2887C40.5792 18.6361 40.7854 18.9929 41.1328 19.086L43.6485 19.7599C43.9979 19.8538 44.3532 19.6445 44.4458 19.2996C44.5389 18.9522 44.3326 18.5952 43.9852 18.5024Z" fill="white"/>
<path d="M37.664 9.39415L36.9893 11.9098C36.8962 12.2572 37.1022 12.614 37.4496 12.7073C37.7968 12.8002 38.1538 12.5947 38.2471 12.247L38.9216 9.73137C39.0147 9.38398 38.8087 9.02692 38.4613 8.93384C38.1141 8.84077 37.7571 9.04676 37.664 9.39415V9.39415Z" fill="white"/>
</g>
<defs>
<filter id="filter0_d" x="0" y="0" width="58" height="58" filterUnits="userSpaceOnUse" color-interpolation-filters="sRGB">
<feFlood flood-opacity="0" result="BackgroundImageFix"/>
<feColorMatrix in="SourceAlpha" type="matrix" values="0 0 0 0 0 0 0 0 0 0 0 0 0 0 0 0 0 0 127 0"/>
<feOffset dy="4"/>
<feGaussianBlur stdDeviation="2"/>
<feColorMatrix type="matrix" values="0 0 0 0 0 0 0 0 0 0 0 0 0 0 0 0 0 0 0.25 0"/>
<feBlend mode="normal" in2="BackgroundImageFix" result="effect1_dropShadow"/>
<feBlend mode="normal" in="SourceGraphic" in2="effect1_dropShadow" result="shape"/>
</filter>
<clipPath id="clip0">
<rect width="33.3333" height="33.3333" fill="white" transform="translate(12 8)"/>
</clipPath>
</defs>
</svg>
