<svg width="34" height="34" viewBox="0 0 34 34" fill="none" xmlns="http://www.w3.org/2000/svg">
<path d="M16.2306 0.739842C16.6392 0.331239 17.3017 0.331239 17.7103 0.739842V0.739842C18.1189 1.14845 18.1189 1.81092 17.7103 2.21953L17.6863 2.24356C17.2777 2.65217 16.6152 2.65217 16.2066 2.24356V2.24356C15.798 1.83496 15.798 1.17248 16.2066 0.763879L16.2306 0.739842Z" fill="#0B5688"/>
<path d="M13.6529 3.31765C14.0615 2.90904 14.7239 2.90904 15.1325 3.31765V3.31765C15.5411 3.72625 15.5411 4.38873 15.1325 4.79733L15.1085 4.82137C14.6999 5.22997 14.0374 5.22997 13.6288 4.82137V4.82137C13.2202 4.41276 13.2202 3.75029 13.6288 3.34168L13.6529 3.31765Z" fill="#0B5688"/>
<path d="M16.1894 5.85425C16.598 5.44565 17.2604 5.44565 17.669 5.85425V5.85425C18.0776 6.26286 18.0776 6.92533 17.669 7.33394L17.645 7.35797C17.2364 7.76658 16.5739 7.76658 16.1653 7.35797V7.35797C15.7567 6.94937 15.7567 6.28689 16.1653 5.87829L16.1894 5.85425Z" fill="#0B5688"/>
<path d="M18.726 8.39086C19.1346 7.98225 19.7971 7.98225 20.2057 8.39086V8.39086C20.6143 8.79946 20.6143 9.46194 20.2057 9.87054L20.1816 9.89458C19.773 10.3032 19.1105 10.3032 18.7019 9.89458V9.89458C18.2933 9.48598 18.2933 8.8235 18.7019 8.4149L18.726 8.39086Z" fill="#0B5688"/>
<path d="M21.2626 10.9275C21.6712 10.5188 22.3337 10.5188 22.7423 10.9275V10.9275C23.1509 11.3361 23.1509 11.9985 22.7423 12.4071L22.7183 12.4312C22.3096 12.8398 21.6472 12.8398 21.2386 12.4312V12.4312C20.83 12.0226 20.83 11.3601 21.2386 10.9515L21.2626 10.9275Z" fill="#0B5688"/>
<path d="M23.7992 13.4641C24.2078 13.0555 24.8703 13.0555 25.2789 13.4641V13.4641C25.6875 13.8727 25.6875 14.5351 25.2789 14.9437L25.2549 14.9678C24.8463 15.3764 24.1838 15.3764 23.7752 14.9678V14.9678C23.3666 14.5592 23.3666 13.8967 23.7752 13.4881L23.7992 13.4641Z" fill="#0B5688"/>
<path d="M26.3358 16.0007C26.7444 15.5921 27.4069 15.5921 27.8155 16.0007V16.0007C28.2241 16.4093 28.2241 17.0717 27.8155 17.4803L27.7915 17.5044C27.3829 17.913 26.7204 17.913 26.3118 17.5044V17.5044C25.9032 17.0958 25.9032 16.4333 26.3118 16.0247L26.3358 16.0007Z" fill="#0B5688"/>
<path d="M11.075 5.89545C11.4836 5.48685 12.1461 5.48685 12.5547 5.89545V5.89545C12.9633 6.30405 12.9633 6.96653 12.5547 7.37514L12.5307 7.39917C12.1221 7.80778 11.4596 7.80778 11.051 7.39917V7.39917C10.6424 6.99057 10.6424 6.32809 11.051 5.91949L11.075 5.89545Z" fill="#0B5688"/>
<path d="M13.6116 8.43206C14.0202 8.02345 14.6827 8.02345 15.0913 8.43206V8.43206C15.4999 8.84066 15.4999 9.50314 15.0913 9.91174L15.0672 9.93578C14.6586 10.3444 13.9962 10.3444 13.5876 9.93578V9.93578C13.179 9.52717 13.179 8.8647 13.5876 8.45609L13.6116 8.43206Z" fill="#0B5688"/>
<path d="M16.1482 10.9687C16.5568 10.5601 17.2193 10.5601 17.6279 10.9687V10.9687C18.0365 11.3773 18.0365 12.0397 17.6279 12.4483L17.6039 12.4724C17.1953 12.881 16.5328 12.881 16.1242 12.4724V12.4724C15.7156 12.0638 15.7156 11.4013 16.1242 10.9927L16.1482 10.9687Z" fill="#0B5688"/>
<path d="M18.6848 13.5053C19.0934 13.0967 19.7559 13.0967 20.1645 13.5053V13.5053C20.5731 13.9139 20.5731 14.5764 20.1645 14.985L20.1405 15.009C19.7319 15.4176 19.0694 15.4176 18.6608 15.009V15.009C18.2522 14.6004 18.2522 13.9379 18.6608 13.5293L18.6848 13.5053Z" fill="#0B5688"/>
<path d="M21.2213 16.0419C21.6299 15.6333 22.2924 15.6333 22.701 16.0419V16.0419C23.1096 16.4505 23.1096 17.1129 22.701 17.5215L22.677 17.5456C22.2684 17.9542 21.6059 17.9542 21.1973 17.5456V17.5456C20.7887 17.137 20.7887 16.4745 21.1973 16.0659L21.2213 16.0419Z" fill="#0B5688"/>
<path d="M18.6436 18.6197C19.0522 18.2111 19.7147 18.2111 20.1233 18.6197V18.6197C20.5319 19.0283 20.5319 19.6907 20.1233 20.0993L20.0992 20.1234C19.6906 20.532 19.0281 20.532 18.6195 20.1234V20.1234C18.2109 19.7148 18.2109 19.0523 18.6195 18.6437L18.6436 18.6197Z" fill="#0B5688"/>
<path d="M16.0658 21.1975C16.4744 20.7889 17.1369 20.7889 17.5455 21.1975V21.1975C17.9541 21.6061 17.9541 22.2686 17.5455 22.6772L17.5215 22.7012C17.1129 23.1098 16.4504 23.1098 16.0418 22.7012V22.7012C15.6332 22.2926 15.6332 21.6301 16.0418 21.2215L16.0658 21.1975Z" fill="#0B5688"/>
<path d="M13.4879 23.7753C13.8965 23.3667 14.559 23.3667 14.9676 23.7753V23.7753C15.3762 24.1839 15.3762 24.8464 14.9676 25.255L14.9436 25.279C14.535 25.6876 13.8725 25.6876 13.4639 25.279V25.279C13.0553 24.8704 13.0553 24.2079 13.4639 23.7993L13.4879 23.7753Z" fill="#0B5688"/>
<path d="M10.9102 26.3531C11.3188 25.9445 11.9813 25.9445 12.3899 26.3531V26.3531C12.7985 26.7617 12.7985 27.4242 12.3899 27.8328L12.3658 27.8568C11.9572 28.2654 11.2948 28.2654 10.8861 27.8568V27.8568C10.4775 27.4482 10.4775 26.7857 10.8861 26.3771L10.9102 26.3531Z" fill="#0B5688"/>
<path d="M23.7581 18.5785C24.1667 18.1699 24.8292 18.1699 25.2378 18.5785V18.5785C25.6464 18.9871 25.6464 19.6495 25.2378 20.0581L25.2137 20.0822C24.8051 20.4908 24.1426 20.4908 23.734 20.0822V20.0822C23.3254 19.6736 23.3254 19.0111 23.734 18.6025L23.7581 18.5785Z" fill="#0B5688"/>
<path d="M21.1802 21.1563C21.5888 20.7477 22.2513 20.7477 22.6599 21.1563V21.1563C23.0685 21.5649 23.0685 22.2273 22.6599 22.6359L22.6358 22.66C22.2272 23.0686 21.5648 23.0686 21.1562 22.66V22.66C20.7476 22.2514 20.7476 21.5889 21.1562 21.1803L21.1802 21.1563Z" fill="#0B5688"/>
<path d="M18.6024 23.7341C19.011 23.3255 19.6735 23.3255 20.0821 23.7341V23.7341C20.4907 24.1427 20.4907 24.8052 20.0821 25.2138L20.0581 25.2378C19.6495 25.6464 18.987 25.6464 18.5784 25.2378V25.2378C18.1698 24.8292 18.1698 24.1667 18.5784 23.7581L18.6024 23.7341Z" fill="#0B5688"/>
<path d="M16.0246 26.3119C16.4332 25.9033 17.0956 25.9033 17.5042 26.3119V26.3119C17.9129 26.7205 17.9129 27.383 17.5042 27.7916L17.4802 27.8156C17.0716 28.2242 16.4091 28.2242 16.0005 27.8156V27.8156C15.5919 27.407 15.5919 26.7445 16.0005 26.3359L16.0246 26.3119Z" fill="#0B5688"/>
<path d="M13.4468 28.8897C13.8554 28.4811 14.5179 28.4811 14.9265 28.8897V28.8897C15.3351 29.2983 15.3351 29.9608 14.9265 30.3694L14.9024 30.3934C14.4938 30.802 13.8314 30.802 13.4228 30.3934V30.3934C13.0142 29.9848 13.0142 29.3223 13.4228 28.9137L13.4468 28.8897Z" fill="#0B5688"/>
<path d="M18.7672 3.27645C19.1758 2.86784 19.8383 2.86784 20.2469 3.27645V3.27645C20.6555 3.68505 20.6555 4.34753 20.2469 4.75613L20.2229 4.78017C19.8143 5.18877 19.1518 5.18877 18.7432 4.78017V4.78017C18.3346 4.37157 18.3346 3.70909 18.7432 3.30048L18.7672 3.27645Z" fill="#0B5688"/>
<path d="M21.3039 5.81304C21.7125 5.40444 22.3749 5.40444 22.7835 5.81304V5.81304C23.1921 6.22164 23.1921 6.88412 22.7835 7.29272L22.7595 7.31676C22.3509 7.72536 21.6884 7.72536 21.2798 7.31676V7.31676C20.8712 6.90816 20.8712 6.24568 21.2798 5.83707L21.3039 5.81304Z" fill="#0B5688"/>
<path d="M23.8405 8.34965C24.2491 7.94104 24.9116 7.94104 25.3202 8.34965V8.34965C25.7288 8.75825 25.7288 9.42073 25.3202 9.82933L25.2961 9.85337C24.8875 10.262 24.225 10.262 23.8164 9.85337V9.85337C23.4078 9.44476 23.4078 8.78228 23.8164 8.37368L23.8405 8.34965Z" fill="#0B5688"/>
<path d="M26.377 10.8863C26.7856 10.4776 27.4481 10.4776 27.8567 10.8863V10.8863C28.2653 11.2949 28.2653 11.9573 27.8567 12.3659L27.8326 12.39C27.424 12.7986 26.7615 12.7986 26.3529 12.39V12.39C25.9443 11.9814 25.9443 11.3189 26.3529 10.9103L26.377 10.8863Z" fill="#0B5688"/>
<path d="M28.9136 13.4229C29.3222 13.0143 29.9847 13.0143 30.3933 13.4229V13.4229C30.8019 13.8315 30.8019 14.4939 30.3933 14.9025L30.3692 14.9266C29.9606 15.3352 29.2982 15.3352 28.8896 14.9266V14.9266C28.481 14.518 28.481 13.8555 28.8896 13.4469L28.9136 13.4229Z" fill="#0B5688"/>
<path d="M31.4502 15.9595C31.8588 15.5509 32.5213 15.5509 32.9299 15.9595V15.9595C33.3385 16.3681 33.3385 17.0305 32.9299 17.4391L32.9059 17.4632C32.4973 17.8718 31.8348 17.8718 31.4262 17.4632V17.4632C31.0176 17.0546 31.0176 16.3921 31.4262 15.9835L31.4502 15.9595Z" fill="#0B5688"/>
<path d="M28.8725 18.5373C29.2811 18.1287 29.9435 18.1287 30.3521 18.5373V18.5373C30.7608 18.9459 30.7608 19.6083 30.3521 20.017L30.3281 20.041C29.9195 20.4496 29.257 20.4496 28.8484 20.041V20.041C28.4398 19.6324 28.4398 18.9699 28.8484 18.5613L28.8725 18.5373Z" fill="#0B5688"/>
<path d="M26.2946 21.1151C26.7032 20.7065 27.3657 20.7065 27.7743 21.1151V21.1151C28.1829 21.5237 28.1829 22.1862 27.7743 22.5948L27.7502 22.6188C27.3416 23.0274 26.6792 23.0274 26.2705 22.6188V22.6188C25.8619 22.2102 25.8619 21.5477 26.2705 21.1391L26.2946 21.1151Z" fill="#0B5688"/>
<path d="M23.7168 23.6929C24.1254 23.2843 24.7879 23.2843 25.1965 23.6929V23.6929C25.6051 24.1015 25.6051 24.764 25.1965 25.1726L25.1725 25.1966C24.7639 25.6052 24.1014 25.6052 23.6928 25.1966V25.1966C23.2842 24.788 23.2842 24.1255 23.6928 23.7169L23.7168 23.6929Z" fill="#0B5688"/>
<path d="M21.1389 26.2707C21.5475 25.8621 22.21 25.8621 22.6186 26.2707V26.2707C23.0272 26.6793 23.0272 27.3418 22.6186 27.7504L22.5946 27.7744C22.186 28.183 21.5235 28.183 21.1149 27.7744V27.7744C20.7063 27.3658 20.7063 26.7033 21.1149 26.2947L21.1389 26.2707Z" fill="#0B5688"/>
<path d="M18.5612 28.8485C18.9698 28.4399 19.6323 28.4399 20.0409 28.8485V28.8485C20.4495 29.2571 20.4495 29.9196 20.0409 30.3282L20.0168 30.3522C19.6082 30.7608 18.9458 30.7608 18.5372 30.3522V30.3522C18.1285 29.9436 18.1285 29.2811 18.5372 28.8725L18.5612 28.8485Z" fill="#0B5688"/>
<path d="M15.9834 31.4263C16.392 31.0177 17.0545 31.0177 17.4631 31.4263V31.4263C17.8717 31.8349 17.8717 32.4974 17.4631 32.906L17.4391 32.93C17.0305 33.3386 16.368 33.3386 15.9594 32.93V32.93C15.5508 32.5214 15.5508 31.8589 15.9594 31.4503L15.9834 31.4263Z" fill="#0B5688"/>
</svg>
