<svg width="57" height="57" viewBox="0 0 57 57" fill="none" xmlns="http://www.w3.org/2000/svg">
<path d="M27.0311 1.2531C27.7232 0.561032 28.8453 0.561032 29.5373 1.2531C30.2294 1.94517 30.2294 3.06723 29.5373 3.7593C28.8453 4.45137 27.7232 4.45137 27.0311 3.7593C26.3391 3.06723 26.3391 1.94517 27.0311 1.2531Z" fill="black" fill-opacity="0.6"/>
<path d="M22.7348 5.54944C23.4268 4.85737 24.5489 4.85737 25.241 5.54944C25.933 6.24151 25.933 7.36357 25.241 8.05564C24.5489 8.74771 23.4268 8.74771 22.7348 8.05564C22.0427 7.36357 22.0427 6.24151 22.7348 5.54944Z" fill="black" fill-opacity="0.6"/>
<path d="M27.0311 9.8458C27.7232 9.15373 28.8453 9.15373 29.5373 9.8458C30.2294 10.5379 30.2294 11.6599 29.5373 12.352C28.8453 13.0441 27.7232 13.0441 27.0311 12.352C26.3391 11.6599 26.3391 10.5379 27.0311 9.8458Z" fill="black" fill-opacity="0.6"/>
<path d="M31.3275 14.1421C32.0196 13.4501 33.1417 13.4501 33.8337 14.1421C34.5258 14.8342 34.5258 15.9563 33.8337 16.6483C33.1417 17.3404 32.0196 17.3404 31.3275 16.6483C30.6355 15.9563 30.6355 14.8342 31.3275 14.1421Z" fill="black" fill-opacity="0.6"/>
<path d="M35.6238 18.4385C36.3159 17.7464 37.4379 17.7464 38.13 18.4385C38.8221 19.1305 38.8221 20.2526 38.13 20.9447C37.4379 21.6368 36.3159 21.6368 35.6238 20.9447C34.9317 20.2526 34.9317 19.1305 35.6238 18.4385Z" fill="black" fill-opacity="0.6"/>
<path d="M39.9202 22.7348C40.6122 22.0428 41.7343 22.0428 42.4264 22.7348C43.1184 23.4269 43.1184 24.549 42.4264 25.241C41.7343 25.9331 40.6122 25.9331 39.9202 25.241C39.2281 24.549 39.2281 23.4269 39.9202 22.7348Z" fill="black" fill-opacity="0.6"/>
<path d="M44.2165 27.0312C44.9086 26.3391 46.0306 26.3391 46.7227 27.0312C47.4148 27.7232 47.4148 28.8453 46.7227 29.5374C46.0306 30.2294 44.9086 30.2294 44.2165 29.5374C43.5244 28.8453 43.5244 27.7232 44.2165 27.0312Z" fill="black" fill-opacity="0.6"/>
<path d="M18.4385 9.8458C19.1306 9.15373 20.2526 9.15373 20.9447 9.8458C21.6368 10.5379 21.6368 11.6599 20.9447 12.352C20.2526 13.0441 19.1306 13.0441 18.4385 12.352C17.7464 11.6599 17.7464 10.5379 18.4385 9.8458Z" fill="black" fill-opacity="0.6"/>
<path d="M22.7348 14.1421C23.4268 13.4501 24.5489 13.4501 25.241 14.1421C25.933 14.8342 25.933 15.9563 25.241 16.6483C24.5489 17.3404 23.4268 17.3404 22.7348 16.6483C22.0427 15.9563 22.0427 14.8342 22.7348 14.1421Z" fill="black" fill-opacity="0.6"/>
<path d="M27.0311 18.4385C27.7232 17.7464 28.8453 17.7464 29.5373 18.4385C30.2294 19.1305 30.2294 20.2526 29.5373 20.9447C28.8453 21.6367 27.7232 21.6367 27.0311 20.9447C26.3391 20.2526 26.3391 19.1305 27.0311 18.4385Z" fill="black" fill-opacity="0.6"/>
<path d="M31.3275 22.7348C32.0196 22.0428 33.1417 22.0428 33.8337 22.7348C34.5258 23.4269 34.5258 24.549 33.8337 25.241C33.1417 25.9331 32.0196 25.9331 31.3275 25.241C30.6355 24.549 30.6355 23.4269 31.3275 22.7348Z" fill="black" fill-opacity="0.6"/>
<path d="M35.6238 27.0312C36.3159 26.3391 37.4379 26.3391 38.13 27.0312C38.8221 27.7232 38.8221 28.8453 38.13 29.5374C37.4379 30.2294 36.3159 30.2294 35.6238 29.5374C34.9317 28.8453 34.9317 27.7232 35.6238 27.0312Z" fill="black" fill-opacity="0.6"/>
<path d="M31.3275 31.3275C32.0196 30.6355 33.1417 30.6354 33.8337 31.3275C34.5258 32.0196 34.5258 33.1417 33.8337 33.8337C33.1417 34.5258 32.0196 34.5258 31.3275 33.8337C30.6355 33.1417 30.6355 32.0196 31.3275 31.3275Z" fill="black" fill-opacity="0.6"/>
<path d="M27.0311 35.6239C27.7232 34.9318 28.8453 34.9318 29.5373 35.6239C30.2294 36.3159 30.2294 37.438 29.5373 38.1301C28.8453 38.8221 27.7232 38.8221 27.0311 38.1301C26.3391 37.438 26.3391 36.3159 27.0311 35.6239Z" fill="black" fill-opacity="0.6"/>
<path d="M22.7348 39.9202C23.4268 39.2281 24.5489 39.2281 25.241 39.9202C25.933 40.6123 25.933 41.7343 25.241 42.4264C24.5489 43.1185 23.4268 43.1185 22.7348 42.4264C22.0427 41.7343 22.0427 40.6123 22.7348 39.9202Z" fill="black" fill-opacity="0.6"/>
<path d="M18.4385 44.2166C19.1306 43.5245 20.2526 43.5245 20.9447 44.2166C21.6368 44.9086 21.6368 46.0307 20.9447 46.7228C20.2526 47.4148 19.1306 47.4148 18.4385 46.7228C17.7464 46.0307 17.7464 44.9086 18.4385 44.2166Z" fill="black" fill-opacity="0.6"/>
<path d="M39.9202 31.3275C40.6122 30.6355 41.7343 30.6354 42.4264 31.3275C43.1184 32.0196 43.1184 33.1417 42.4264 33.8337C41.7343 34.5258 40.6122 34.5258 39.9202 33.8337C39.2281 33.1417 39.2281 32.0196 39.9202 31.3275Z" fill="black" fill-opacity="0.6"/>
<path d="M35.6238 35.6239C36.3159 34.9318 37.4379 34.9318 38.13 35.6239C38.8221 36.3159 38.8221 37.438 38.13 38.1301C37.4379 38.8221 36.3159 38.8221 35.6238 38.1301C34.9317 37.438 34.9317 36.3159 35.6238 35.6239Z" fill="black" fill-opacity="0.6"/>
<path d="M31.3275 39.9202C32.0196 39.2281 33.1417 39.2281 33.8337 39.9202C34.5258 40.6123 34.5258 41.7343 33.8337 42.4264C33.1417 43.1185 32.0196 43.1185 31.3275 42.4264C30.6355 41.7343 30.6355 40.6123 31.3275 39.9202Z" fill="black" fill-opacity="0.6"/>
<path d="M27.0311 44.2165C27.7232 43.5245 28.8453 43.5245 29.5373 44.2165C30.2294 44.9086 30.2294 46.0307 29.5373 46.7227C28.8453 47.4148 27.7232 47.4148 27.0311 46.7227C26.3391 46.0307 26.3391 44.9086 27.0311 44.2165Z" fill="black" fill-opacity="0.6"/>
<path d="M22.7348 48.5129C23.4268 47.8208 24.5489 47.8208 25.241 48.5129C25.933 49.2049 25.933 50.327 25.241 51.0191C24.5489 51.7111 23.4268 51.7112 22.7347 51.0191C22.0427 50.327 22.0427 49.205 22.7348 48.5129Z" fill="black" fill-opacity="0.6"/>
<path d="M31.3275 5.54944C32.0196 4.85737 33.1417 4.85737 33.8337 5.54944C34.5258 6.24151 34.5258 7.36357 33.8337 8.05564C33.1417 8.74771 32.0196 8.74771 31.3275 8.05564C30.6355 7.36357 30.6355 6.24151 31.3275 5.54944Z" fill="black" fill-opacity="0.6"/>
<path d="M35.6238 9.8458C36.3159 9.15373 37.4379 9.15373 38.13 9.8458C38.8221 10.5379 38.8221 11.6599 38.13 12.352C37.4379 13.0441 36.3159 13.0441 35.6238 12.352C34.9317 11.6599 34.9317 10.5379 35.6238 9.8458Z" fill="black" fill-opacity="0.6"/>
<path d="M39.9202 14.1421C40.6122 13.4501 41.7343 13.4501 42.4264 14.1421C43.1184 14.8342 43.1185 15.9563 42.4264 16.6483C41.7343 17.3404 40.6122 17.3404 39.9202 16.6483C39.2281 15.9563 39.2281 14.8342 39.9202 14.1421Z" fill="black" fill-opacity="0.6"/>
<path d="M44.2165 18.4385C44.9086 17.7464 46.0306 17.7464 46.7227 18.4385C47.4148 19.1305 47.4148 20.2526 46.7227 20.9447C46.0306 21.6367 44.9086 21.6367 44.2165 20.9447C43.5244 20.2526 43.5244 19.1305 44.2165 18.4385Z" fill="black" fill-opacity="0.6"/>
<path d="M48.5129 22.7348C49.205 22.0428 50.327 22.0428 51.0191 22.7348C51.7112 23.4269 51.7112 24.549 51.0191 25.241C50.327 25.9331 49.205 25.9331 48.5129 25.241C47.8208 24.549 47.8208 23.4269 48.5129 22.7348Z" fill="black" fill-opacity="0.6"/>
<path d="M52.8092 27.0312C53.5013 26.3391 54.6233 26.3391 55.3154 27.0312C56.0075 27.7232 56.0075 28.8453 55.3154 29.5374C54.6233 30.2294 53.5013 30.2294 52.8092 29.5374C52.1171 28.8453 52.1171 27.7232 52.8092 27.0312Z" fill="black" fill-opacity="0.6"/>
<path d="M48.5129 31.3275C49.205 30.6354 50.327 30.6354 51.0191 31.3275C51.7112 32.0196 51.7112 33.1417 51.0191 33.8337C50.327 34.5258 49.205 34.5258 48.5129 33.8337C47.8208 33.1417 47.8208 32.0196 48.5129 31.3275Z" fill="black" fill-opacity="0.6"/>
<path d="M44.2165 35.6239C44.9086 34.9318 46.0306 34.9318 46.7227 35.6239C47.4148 36.3159 47.4148 37.438 46.7227 38.1301C46.0306 38.8221 44.9086 38.8221 44.2165 38.1301C43.5244 37.438 43.5244 36.3159 44.2165 35.6239Z" fill="black" fill-opacity="0.6"/>
<path d="M39.9202 39.9202C40.6122 39.2281 41.7343 39.2281 42.4264 39.9202C43.1184 40.6123 43.1185 41.7343 42.4264 42.4264C41.7343 43.1185 40.6122 43.1185 39.9202 42.4264C39.2281 41.7343 39.2281 40.6123 39.9202 39.9202Z" fill="black" fill-opacity="0.6"/>
<path d="M35.6238 44.2166C36.3159 43.5245 37.4379 43.5245 38.13 44.2166C38.8221 44.9086 38.8221 46.0307 38.13 46.7228C37.4379 47.4148 36.3159 47.4148 35.6238 46.7228C34.9317 46.0307 34.9317 44.9086 35.6238 44.2166Z" fill="black" fill-opacity="0.6"/>
<path d="M31.3275 48.5129C32.0196 47.8208 33.1417 47.8208 33.8337 48.5129C34.5258 49.205 34.5258 50.327 33.8337 51.0191C33.1417 51.7112 32.0196 51.7111 31.3275 51.0191C30.6355 50.327 30.6355 49.2049 31.3275 48.5129Z" fill="black" fill-opacity="0.6"/>
<path d="M27.0311 52.8092C27.7232 52.1172 28.8453 52.1172 29.5373 52.8092C30.2294 53.5013 30.2294 54.6234 29.5373 55.3154C28.8453 56.0075 27.7232 56.0075 27.0311 55.3154C26.3391 54.6234 26.3391 53.5013 27.0311 52.8092Z" fill="black" fill-opacity="0.6"/>
</svg>
