<svg width="60" height="60" viewBox="0 0 60 60" fill="none" xmlns="http://www.w3.org/2000/svg">
<circle cx="30" cy="30" r="29" fill="url(#paint0_linear)" stroke="white" stroke-width="2"/>
<g clip-path="url(#clip0)">
<path d="M45.2266 34.615C44.7314 34.615 44.33 35.0163 44.33 35.5116V43.4723C44.3282 44.9572 43.1252 46.1606 41.6402 46.162H16.4829C14.998 46.1606 13.7949 44.9572 13.7932 43.4723V20.1081C13.7949 18.6235 14.998 17.4201 16.4829 17.4184H24.4436C24.9389 17.4184 25.3402 17.017 25.3402 16.5218C25.3402 16.0269 24.9389 15.6252 24.4436 15.6252H16.4829C14.0082 15.628 12.0028 17.6334 12 20.1081V43.4726C12.0028 45.9473 14.0082 47.9528 16.4829 47.9556H41.6402C44.115 47.9528 46.1204 45.9473 46.1232 43.4726V35.5116C46.1232 35.0163 45.7218 34.615 45.2266 34.615V34.615Z" fill="white"/>
<path d="M45.7681 13.3182C44.1924 11.7426 41.6378 11.7426 40.0622 13.3182L24.0665 29.3139C23.9569 29.4235 23.8777 29.5594 23.8364 29.7086L21.7329 37.3026C21.6464 37.614 21.7343 37.9474 21.9627 38.1761C22.1914 38.4044 22.5248 38.4923 22.8361 38.4062L30.4302 36.3024C30.5794 36.261 30.7152 36.1819 30.8249 36.0723L46.8202 20.0763C48.3934 18.4995 48.3934 15.9471 46.8202 14.3703L45.7681 13.3182ZM26.0201 29.8967L39.1113 16.8051L43.3333 21.0271L30.2417 34.1187L26.0201 29.8967ZM25.1767 31.589L28.5498 34.9624L23.884 36.2551L25.1767 31.589ZM45.5524 18.8084L44.6015 19.7593L40.3791 15.5369L41.3303 14.5861C42.2056 13.7108 43.6247 13.7108 44.4999 14.5861L45.5524 15.6382C46.4262 16.5144 46.4262 17.9325 45.5524 18.8084V18.8084Z" fill="white"/>
</g>
<defs>
<linearGradient id="paint0_linear" x1="60" y1="60" x2="4.19999" y2="-5.84435e-06" gradientUnits="userSpaceOnUse">
<stop stop-color="#FF7A00"/>
<stop offset="1" stop-color="#FFD336"/>
</linearGradient>
<clipPath id="clip0">
<rect width="36" height="36" fill="white" transform="translate(12 12)"/>
</clipPath>
</defs>
</svg>
